<svg width="46" height="45" viewBox="0 0 46 45" fill="none" xmlns="http://www.w3.org/2000/svg">
<path fill-rule="evenodd" clip-rule="evenodd" d="M23.1107 3.75C12.7514 3.75 4.36075 12.1406 4.36075 22.5C4.36075 30.7969 9.72794 37.8047 17.1811 40.2891C18.1186 40.4531 18.4701 39.8906 18.4701 39.3984C18.4701 38.9531 18.4467 37.4766 18.4467 35.9063C13.7357 36.7734 12.517 34.7578 12.142 33.7031C11.9311 33.1641 11.017 31.5 10.2201 31.0547C9.56387 30.7031 8.62637 29.8359 10.1967 29.8125C11.6732 29.7891 12.7279 31.1719 13.0795 31.7344C14.767 34.5703 17.4623 33.7734 18.5404 33.2813C18.7045 32.0625 19.1967 31.2422 19.7357 30.7734C15.5639 30.3047 11.2045 28.6875 11.2045 21.5156C11.2045 19.4766 11.9311 17.7891 13.1264 16.4766C12.9389 16.0078 12.2826 14.0859 13.3139 11.5078C13.3139 11.5078 14.8842 11.0156 18.4701 13.4297C19.9701 13.0078 21.5639 12.7969 23.1576 12.7969C24.7514 12.7969 26.3451 13.0078 27.8451 13.4297C31.4311 10.9922 33.0014 11.5078 33.0014 11.5078C34.0326 14.0859 33.3764 16.0078 33.1889 16.4766C34.3842 17.7891 35.1107 19.4531 35.1107 21.5156C35.1107 28.7109 30.7279 30.3047 26.5561 30.7734C27.2357 31.3594 27.8217 32.4844 27.8217 34.2422C27.8217 36.75 27.7982 38.7656 27.7982 39.3984C27.7982 39.8906 28.1498 40.4766 29.0873 40.2891C32.8095 39.0325 36.044 36.6403 38.3354 33.4491C40.6268 30.258 41.8597 26.4286 41.8607 22.5C41.8607 12.1406 33.4701 3.75 23.1107 3.75Z" stroke="white" stroke-width="1.5" stroke-linejoin="round"/>
</svg>
