<svg width="46" height="45" viewBox="0 0 46 45" fill="none" xmlns="http://www.w3.org/2000/svg">
<path d="M40.7669 19.375C40.9544 20.5156 41.0638 21.6875 41.0638 22.9219C41.0638 28.625 39.0325 33.4375 35.5013 36.7031C32.4075 39.5625 28.1732 41.25 23.1107 41.25C15.7825 41.25 9.45441 37.0312 6.37628 30.9063C5.09503 28.375 4.36066 25.5312 4.36066 22.5C4.36066 19.4688 5.09503 16.625 6.37628 14.0938C9.45441 7.96875 15.7825 3.75 23.1107 3.75C28.1732 3.75 32.4075 5.60938 35.6419 8.64063L30.2982 13.9844C28.345 12.125 25.8763 11.1719 23.1107 11.1719C18.22 11.1719 14.0794 14.4688 12.595 18.9219C12.22 20.0469 12.0013 21.25 12.0013 22.5C12.0013 23.75 12.2044 24.9531 12.595 26.0781C14.0794 30.5313 18.22 33.8281 23.1107 33.8281C25.6419 33.8281 27.7825 33.1406 29.47 32.0156C31.4388 30.6875 32.7669 28.7344 33.22 26.4219H23.1107V19.375H40.7669Z" stroke="white" stroke-width="1.5" stroke-linejoin="round"/>
</svg>
