<svg width="22" height="22" viewBox="0 0 22 22" fill="none" xmlns="http://www.w3.org/2000/svg">
<path d="M11.0001 11C13.5314 11 15.5834 8.94797 15.5834 6.41667C15.5834 3.88536 13.5314 1.83334 11.0001 1.83334C8.46878 1.83334 6.41675 3.88536 6.41675 6.41667C6.41675 8.94797 8.46878 11 11.0001 11Z" stroke="#505050" stroke-width="1.25" stroke-linecap="round" stroke-linejoin="round"/>
<path d="M17.6091 14.4284L14.364 17.6734C14.2357 17.8017 14.1165 18.04 14.089 18.2142L13.9149 19.4517C13.8507 19.9008 14.1624 20.2125 14.6115 20.1483L15.849 19.9742C16.0232 19.9467 16.2707 19.8275 16.3899 19.6992L19.6349 16.4542C20.194 15.895 20.4599 15.2442 19.6349 14.4192C18.819 13.6033 18.1682 13.8692 17.6091 14.4284Z" stroke="#505050" stroke-width="1.25" stroke-miterlimit="10" stroke-linecap="round" stroke-linejoin="round"/>
<path d="M17.1416 14.8958C17.4166 15.8858 18.1866 16.6558 19.1766 16.9308" stroke="#505050" stroke-width="1.25" stroke-miterlimit="10" stroke-linecap="round" stroke-linejoin="round"/>
<path d="M3.12573 20.1667C3.12573 16.6192 6.65492 13.75 10.9999 13.75C11.9533 13.75 12.8699 13.8875 13.7224 14.1442" stroke="#505050" stroke-width="1.25" stroke-linecap="round" stroke-linejoin="round"/>
</svg>
