<svg width="25" height="25" viewBox="0 0 25 25" fill="none" xmlns="http://www.w3.org/2000/svg">
<path d="M12.5001 12.4999C15.3766 12.4999 17.7084 10.1681 17.7084 7.29158C17.7084 4.4151 15.3766 2.08325 12.5001 2.08325C9.6236 2.08325 7.29175 4.4151 7.29175 7.29158C7.29175 10.1681 9.6236 12.4999 12.5001 12.4999Z" stroke="#292D32" stroke-width="1.5625" stroke-linecap="round" stroke-linejoin="round"/>
<path d="M3.552 22.9167C3.552 18.8854 7.56242 15.625 12.4999 15.625C13.4999 15.625 14.4687 15.7604 15.3749 16.0104" stroke="#292D32" stroke-width="1.5625" stroke-linecap="round" stroke-linejoin="round"/>
<path d="M22.9166 18.7499C22.9166 19.0833 22.8749 19.4062 22.7916 19.7187C22.6978 20.1353 22.5312 20.5416 22.3124 20.8957C21.5937 22.1041 20.2708 22.9166 18.7499 22.9166C17.677 22.9166 16.7082 22.5103 15.9791 21.8436C15.6666 21.5728 15.3957 21.2499 15.1874 20.8957C14.802 20.2707 14.5833 19.5312 14.5833 18.7499C14.5833 17.6249 15.0312 16.5937 15.7603 15.8437C16.5208 15.0624 17.5833 14.5833 18.7499 14.5833C19.9791 14.5833 21.0937 15.1145 21.8437 15.9687C22.5103 16.7083 22.9166 17.6874 22.9166 18.7499Z" stroke="#292D32" stroke-width="1.5625" stroke-miterlimit="10" stroke-linecap="round" stroke-linejoin="round"/>
<path d="M20.3021 18.729H17.198" stroke="#292D32" stroke-width="1.5625" stroke-miterlimit="10" stroke-linecap="round" stroke-linejoin="round"/>
<path d="M18.75 17.2085V20.3231" stroke="#292D32" stroke-width="1.5625" stroke-miterlimit="10" stroke-linecap="round" stroke-linejoin="round"/>
</svg>
